<svg xmlns="http://www.w3.org/2000/svg" width="911" height="371" fill="none"><path fill="#fff" d="M247.531 318.935v47.882H.303v-1.037c14.571-16.655 16.137-39.564 16.137-78.081V84.194c0-38.517-3.122-60.378-16.137-78.071V5.086H240.24v40.59h-1.556c-14.052-15.088-30.708-22.38-75.996-22.38H39.858v151.465h100.979c39.554 0 54.643-5.725 67.659-17.703h1.556v53.098h-1.556c-13.015-11.978-28.105-17.184-67.659-17.184H39.857v155.623h132.724c42.157 0 58.294-7.28 73.383-29.66h1.567ZM291.325 366.816v-15.618L519.813 24.344v-1.047H376.158c-40.073 0-60.897 8.328-74.949 26.549h-1.556V5.086h249.831v15.608L321.505 347.04v1.556h149.898c41.638 0 58.823-7.799 76.515-31.745h1.566v49.966l-258.159-.001ZM848.304 179.448h61.944v1.037c-11.978 18.74-16.137 34.866-16.137 70.78v86.927c-31.226 20.296-68.706 32.782-114.503 32.782-112.429 0-186.859-74.939-186.859-182.68C592.749 78.468 673.952.916 789.492.916c46.326 0 83.277 9.894 113.985 27.068v40.073h-1.556c-26.03-33.829-64.018-48.4-112.429-48.4-102.535 0-171.231 69.225-171.231 167.591 0 99.414 68.696 166.035 165.506 166.035 31.755 0 61.415-6.762 87.446-19.777v-82.24c0-35.914-3.65-52.04-22.909-70.78V179.448Z"/></svg>